<?xml version="1.0" encoding="UTF-8"?>
<svg id="Layer_2" data-name="Layer 2" xmlns="http://www.w3.org/2000/svg" viewBox="0 0 49.55 59.52">
  <defs>
    <style>
      .cls-1 {
        fill: #f1a9f8;
      }

      .cls-2 {
        fill: #f0a9f8;
      }

      .cls-3 {
        fill: #070707;
      }
    </style>
  </defs>
  <g id="Layer_2-2" data-name="Layer 2">
    <path class="cls-3" d="M27.24,42.01c-.11,1.88,.24,3.71,.58,5.55,.35,1.93,.33,3.88,.27,5.83-.04,1.24-.17,2.48-.4,3.7-.26,1.38-1.43,2.39-2.82,2.42-1.39,.03-2.59-.87-2.95-2.2-.16-.6-.1-1.18,0-1.78,.48-2.85,.32-5.69-.24-8.52-.51-2.57-.4-5.17-.27-7.76,.06-1.2,.1-2.41,.18-3.61,.02-.34-.02-.46-.4-.48-1.2-.06-2.4-.15-3.58-.39-.41-.08-.35,.22-.37,.4-.12,1.49-.16,2.98,.15,4.46,.32,1.58,.77,3.13,1.33,4.64,1.13,3.05,1,6.08,.01,9.12-.2,.63-.4,1.27-.69,1.86-.71,1.47-2.37,2.06-3.91,1.42-1.36-.56-2.06-2.21-1.58-3.69,.27-.83,.52-1.65,.78-2.48,.39-1.25,.31-2.48-.07-3.72-.58-1.92-1.33-3.78-1.72-5.75-.46-2.34-.61-4.68-.12-7.03,.08-.36,0-.55-.4-.67-.71-.22-1.4-.5-2.08-.8-.3-.13-.4-.05-.47,.21-1.11,4.29-1.12,8.46,1.1,12.47,.75,1.36,.72,2.8-.3,4.02-1.33,1.59-3.58,1.42-4.71-.55-.72-1.26-1.3-2.59-1.73-3.97-1.33-4.26-1.35-8.56-.35-12.89,.19-.8,.37-1.61,.62-2.39,.13-.41,.07-.67-.22-.99C.92,26.24-.05,23.63,0,20.67c.04-2.39,.64-4.69,1.78-6.78C5.68,6.71,11.64,2.19,19.63,.57c8.11-1.64,15.44,.26,21.84,5.54,3.24,2.67,5.83,5.84,7.19,9.87,1.26,3.73,1.31,7.39-.79,10.89-.41,.68-.87,1.32-1.44,1.86-.33,.32-.36,.6-.23,1.03,.83,2.83,1.4,5.71,1.28,8.69-.15,3.65-1.03,7.11-2.77,10.33-.67,1.23-1.77,1.63-2.77,1.51-1.29-.15-2.26-1.12-2.55-2.31-.25-1.02-.08-1.96,.39-2.88,1.34-2.63,1.89-5.4,1.64-8.35-.11-1.31-.34-2.58-.63-3.85-.07-.31-.15-.37-.45-.25-.63,.26-1.27,.5-1.92,.7-.52,.16-.29,.55-.24,.81,.21,1.21,.28,2.43,.24,3.65-.09,2.44-.73,4.77-1.46,7.08-.22,.71-.42,1.42-.67,2.12-.57,1.63-.14,3.18,.33,4.73,.16,.51,.37,1.01,.51,1.53,.39,1.45-.41,2.91-1.85,3.43-1.44,.52-3.11-.1-3.72-1.52-.94-2.22-1.65-4.52-1.53-6.97,.07-1.44,.55-2.79,.96-4.16,.59-1.98,1.25-3.94,1.49-6.01,.12-1.05-.07-2.07-.19-3.1-.02-.19-.11-.25-.29-.22-1.31,.24-2.64,.31-3.96,.41-.35,.03-.42,.2-.44,.45-.07,.66-.13,1.32-.16,1.98-.08,1.47-.13,2.95-.2,4.42Zm-2.53-8.28c1.71,.08,3.4-.12,5.1-.25,4.3-.35,8.46-1.22,12.28-3.35,2.27-1.27,4.12-2.94,5.17-5.36,1.23-2.84,.95-5.71-.08-8.54-1.4-3.83-3.94-6.83-7.1-9.32-4.47-3.53-9.57-5.37-15.27-5.42-3.3-.03-6.51,.6-9.53,1.95C9.78,5.9,5.41,9.6,2.82,15.14c-1.28,2.73-1.79,5.6-.95,8.56,.92,3.27,3.34,5.23,6.18,6.78,1.87,1.02,3.88,1.62,5.93,2.11,3.53,.85,7.12,1.06,10.73,1.13Zm-.08,1.51h-.37c-1.16,0-1.15,0-1.2,1.17-.06,1.35-.15,2.69-.22,4.04-.09,1.97-.13,3.97,.28,5.89,.69,3.3,.73,6.58,.29,9.89-.11,.85,.35,1.59,1.05,1.7,1.03,.15,1.63-.24,1.77-1.24,.36-2.43,.4-4.88,.24-7.33-.09-1.41-.54-2.76-.67-4.16-.27-3.05-.06-6.09,.23-9.13,.08-.83,.1-.83-.72-.83-.23,0-.46,0-.69,0Zm12.28,2.1c.02-1.04-.11-2-.25-2.97-.03-.24-.07-.38-.38-.3-.7,.17-1.42,.3-2.13,.46-.22,.05-.34,.14-.29,.43,.09,.49,.12,.99,.14,1.49,.11,2.46-.5,4.8-1.27,7.11-.54,1.61-1.13,3.22-1.18,4.92-.06,2.19,.6,4.25,1.43,6.24,.32,.76,1.06,.97,1.82,.62,.78-.36,1.05-.98,.77-1.77-.21-.58-.41-1.17-.6-1.76-.53-1.67-.67-3.36-.15-5.06,.27-.89,.52-1.78,.79-2.67,.68-2.22,1.34-4.44,1.29-6.73Zm-23.9-3.32c-.46,2.14-.4,4.28,0,6.42,.39,2.03,1.06,3.98,1.67,5.95,.3,.96,.55,1.94,.43,2.98-.18,1.43-.63,2.77-1.11,4.12-.24,.68,.02,1.47,.64,1.81,.68,.38,1.43,.2,1.9-.47,.3-.41,.41-.9,.57-1.37,.71-2.06,1.1-4.15,.71-6.34-.26-1.43-.77-2.78-1.2-4.16-.83-2.63-1.4-5.28-.87-8.05,.08-.44-.25-.37-.44-.41-.77-.18-1.54-.32-2.31-.47Zm-8.47-4.02c-.57,1.85-.93,3.64-1.11,5.48-.43,4.4,.33,8.56,2.46,12.45,.31,.57,.72,.89,1.39,.79,.6-.09,.94-.47,1.16-.99,.3-.73,.04-1.37-.3-2-1.85-3.5-2.26-7.21-1.6-11.08,.14-.84,.35-1.65,.52-2.48,.04-.18,.19-.43-.14-.59-.84-.41-1.6-.94-2.39-1.58Zm40.23,.24c-.81,.55-1.58,1.06-2.41,1.47-.31,.15-.2,.34-.14,.56,.38,1.53,.69,3.07,.78,4.64,.17,3.18-.38,6.22-1.94,9.04-.32,.58-.38,1.18-.13,1.8,.21,.52,.56,.91,1.17,.97,.63,.07,1.01-.24,1.3-.75,.47-.83,.89-1.68,1.23-2.57,1.33-3.55,1.57-7.22,1.06-10.95-.19-1.41-.47-2.8-.92-4.21Z"/>
    <path class="cls-2" d="M24.71,33.73c-3.61-.07-7.2-.28-10.73-1.13-2.05-.5-4.06-1.1-5.93-2.11-2.84-1.55-5.26-3.51-6.18-6.78-.84-2.96-.33-5.83,.95-8.56C5.41,9.6,9.78,5.9,15.27,3.44c3.02-1.36,6.23-1.98,9.53-1.95,5.7,.05,10.8,1.88,15.27,5.42,3.16,2.5,5.7,5.49,7.1,9.32,1.03,2.83,1.32,5.7,.08,8.54-1.05,2.42-2.9,4.09-5.17,5.36-3.82,2.13-7.98,3-12.28,3.35-1.7,.14-3.39,.33-5.1,.25Zm.19-4.72c.48,0,.96,0,1.41-.14,1.01-.32,1.9-.81,2.52-1.7,.21-.29,.29-.62-.09-.86-.29-.19-.59-.28-.85,.11-.9,1.4-2.3,1.56-3.78,1.42-1.02-.1-1.92-.48-2.48-1.42-.23-.39-.56-.32-.84-.09-.28,.22-.32,.49-.08,.81,1.05,1.4,2.5,1.88,4.18,1.87Zm9.64-2.6c.01-.99-.74-1.77-1.73-1.79-.96-.02-1.73,.74-1.75,1.72-.02,1.01,.74,1.79,1.73,1.79,.97,0,1.73-.75,1.75-1.71Zm-16.47,0c.14-.83-.71-1.78-1.66-1.78-.9,0-1.81,.83-1.82,1.7-.01,.92,.84,1.8,1.78,1.81,.96,.02,1.7-.73,1.71-1.72Z"/>
    <path class="cls-2" d="M24.63,35.24c.23,0,.46,0,.69,0,.81,0,.8,0,.72,.83-.29,3.04-.5,6.08-.23,9.13,.12,1.4,.58,2.75,.67,4.16,.15,2.45,.11,4.9-.24,7.33-.15,1-.75,1.39-1.77,1.24-.7-.1-1.16-.84-1.05-1.7,.44-3.31,.4-6.6-.29-9.89-.4-1.92-.37-3.92-.28-5.89,.06-1.35,.16-2.69,.22-4.04,.05-1.17,.04-1.17,1.2-1.17,.12,0,.25,0,.37,0Z"/>
    <path class="cls-2" d="M36.91,37.34c.05,2.29-.61,4.51-1.29,6.73-.27,.89-.52,1.78-.79,2.67-.51,1.71-.38,3.39,.15,5.06,.19,.59,.39,1.17,.6,1.76,.28,.79,.02,1.41-.77,1.77-.76,.35-1.51,.14-1.82-.62-.83-2-1.49-4.05-1.43-6.24,.05-1.71,.64-3.31,1.18-4.92,.77-2.31,1.38-4.65,1.27-7.11-.02-.5-.05-1-.14-1.49-.05-.29,.06-.38,.29-.43,.71-.15,1.42-.28,2.13-.46,.31-.08,.35,.06,.38,.3,.14,.97,.27,1.93,.25,2.97Z"/>
    <path class="cls-2" d="M13.01,34.02c.77,.15,1.54,.29,2.31,.47,.19,.04,.52-.02,.44,.41-.53,2.77,.04,5.43,.87,8.05,.43,1.38,.94,2.73,1.2,4.16,.4,2.19,0,4.28-.71,6.34-.16,.47-.27,.96-.57,1.37-.48,.66-1.22,.85-1.9,.47-.61-.34-.88-1.12-.64-1.81,.48-1.34,.93-2.69,1.11-4.12,.13-1.04-.12-2.02-.43-2.98-.62-1.97-1.29-3.92-1.67-5.95-.41-2.14-.46-4.28,0-6.42Z"/>
    <path class="cls-2" d="M4.54,30c.79,.64,1.56,1.17,2.39,1.58,.32,.16,.17,.41,.14,.59-.17,.83-.38,1.65-.52,2.48-.66,3.87-.25,7.58,1.6,11.08,.34,.64,.61,1.28,.3,2-.22,.52-.56,.9-1.16,.99-.67,.1-1.08-.22-1.39-.79-2.13-3.89-2.89-8.05-2.46-12.45,.18-1.84,.54-3.63,1.11-5.48Z"/>
    <path class="cls-1" d="M44.77,30.24c.44,1.41,.72,2.8,.92,4.21,.52,3.73,.27,7.4-1.06,10.95-.33,.89-.76,1.74-1.23,2.57-.29,.51-.67,.82-1.3,.75-.61-.07-.96-.45-1.17-.97-.25-.61-.19-1.22,.13-1.8,1.55-2.82,2.11-5.86,1.94-9.04-.09-1.57-.39-3.12-.78-4.64-.06-.22-.16-.41,.14-.56,.83-.41,1.61-.91,2.41-1.47Z"/>
    <path class="cls-3" d="M24.9,29.01c-1.67,0-3.13-.47-4.18-1.87-.24-.32-.2-.59,.08-.81,.29-.22,.61-.3,.84,.09,.56,.94,1.47,1.32,2.48,1.42,1.47,.14,2.87-.01,3.78-1.42,.25-.39,.55-.3,.85-.11,.37,.23,.29,.57,.09,.86-.62,.88-1.52,1.38-2.52,1.7-.46,.15-.94,.14-1.41,.14Z"/>
    <path class="cls-3" d="M34.54,26.41c-.01,.96-.78,1.71-1.75,1.71-.99,0-1.75-.78-1.73-1.79,.02-.98,.78-1.74,1.75-1.72,.99,.02,1.75,.8,1.73,1.79Z"/>
    <path class="cls-3" d="M18.07,26.4c-.01,.99-.75,1.74-1.71,1.72-.93-.02-1.79-.89-1.78-1.81,.01-.86,.92-1.7,1.82-1.7,.95,0,1.8,.95,1.66,1.78Z"/>
  </g>
</svg>