<?xml version="1.0" encoding="UTF-8"?>
<svg id="Layer_2" data-name="Layer 2" xmlns="http://www.w3.org/2000/svg" viewBox="0 0 149.97 138.87">
  <defs>
    <style>
      .cls-1 {
        fill: #eaa8b8;
      }

      .cls-2 {
        fill: #f6d980;
      }

      .cls-3 {
        fill: #fff;
      }

      .cls-4 {
        fill: #3a241d;
      }
    </style>
  </defs>
  <g id="Layer_1-2" data-name="Layer 1">
    <path class="cls-4" d="M146.82,92.81c-.76-3.35-1.85-6.64-4.41-9.16-1.03-1.71-2.71-2.58-4.44-3.35-.12-1.05-1.19-.94-1.79-1.29-.73-.43-1.44-1.19-2.46-1.01-1.13-.28-2.09-1.09-3.33-1.03-1.73-.32-1.74-.28-1.67,1.45,.13,2.78-.18,5.53-1.36,8.06-2.25,4.84-6.11,7.98-10.99,9.92-3.59,1.43-7.37,2.23-11.13,3.06-4.33,.96-8.71,1.44-13.13,1.79-5.45,.44-10.9,.75-16.36,1.03-5.03,.26-10.06-.02-15.09-.38-2.94-.21-5.84-.72-8.76-1.14-2.53-.36-4.97-1.11-7.42-1.76-2.03-.54-4.07-1.11-6-1.9-3.29-1.36-6.57-2.75-9.64-4.58-3.43-2.03-6.18-4.67-7.89-8.33-1.23-2.64-2.05-5.4-2.66-8.24-.18-.82-.7-.96-1.32-.69-.63,.27-1.19,.71-1.78,1.08-1.36,.42-2.54,1.17-3.63,2.05-.82,.67-1.75,1.25-2.19,2.3l-.04,.05c-1.09,.52-1.52,1.56-2,2.57-.81,.92-1.33,2.05-1.79,3.15-.47,1.09-1.35,2.07-1.22,3.39-.59,.13-.47,.58-.45,.99-.11,.11-.12,.24-.03,.37-.52,.14-.47,.51-.36,.9-.02,.06,0,.1,.06,.12-.06,.23-.13,.47-.2,.71-.89,.57-.7,1.41-.57,2.24-.22,.68-.19,1.38-.14,2.08-.58,.18-.34,.67-.34,1.01-.08,3.95,1.03,7.68,2.32,11.34,.31,.89,.4,2.04,1.4,2.62-.08,1.06,.66,1.77,1.16,2.56,2.22,3.51,5.05,6.48,8.47,8.83,2.71,1.86,5.6,3.37,8.61,4.71,3.1,1.37,6.28,2.46,9.53,3.32,4.97,1.33,10.08,1.98,15.15,2.66,4.65,.62,9.32,1.33,14.04,1.32,.4-.01,.8,.06,1.19,.09,2.43,.29,4.84,.72,7.27,.84,6.59,.31,13.15-.46,19.73-.67,.17,0,.41,.07,.45-.23,1.42-.07,2.83-.15,4.24-.22,1.94,.19,3.78-.33,5.63-.73,.37,.17,.71,0,1.05-.11,.4,.21,.78,.24,1.12-.13,.21,.09,.4,.08,.58-.06,1.82,.11,3.51-.64,5.29-.88,.68-.09,1.53-.01,2.06-.69,.2,.06,.4,.06,.58-.08,2.72-.26,5.34-.97,7.83-2.09,.83-.37,1.89-.41,2.41-1.36,.82,.12,1.42-.4,2.09-.71,1.98-.92,3.73-2.24,5.59-3.35,3.17-1.89,5.71-4.44,8.2-7.08,2.25-2.38,4.1-5.09,5.74-7.9,.56-.96,1.52-1.89,1.22-3.22l.04-.06c.83-.81,1.16-1.79,1.03-2.93,.03-.23,.06-.45,.09-.67,.82-.3,.5-.96,.49-1.52,.06-1.15,.18-2.3,.17-3.46-.02-1.87,.16-3.81-.24-5.6Zm-26.84-32.41c-1.32-2.48-3.78-3.66-6.24-4.48-2.35-.8-4.88-.9-7.4-.18-.75,.21-1.45,.63-2.14,.74-2.06,.33-3.33,1.77-4.51,3.12-1.68,1.92-2.67,4.23-3.32,6.8-.71,2.81-.03,5.15,1.11,7.57,.86,1.83,2.28,2.98,4.08,3.9,1.85,.94,3.68,1.7,5.79,1.72,3.12,.03,6.04-.54,8.91-1.87,1.42-.66,2.6-1.66,3.32-2.7,1.54-2.24,2.8-4.77,2.29-7.82,.71-2.56-.74-4.66-1.89-6.8Zm-21.31-39.23c-2.02-2.61-5.1-1.85-6.23-.2-1.93,2.81-3.2,5.95-3.16,9.47,0,.52-.04,1.04,0,1.56,.14,1.68,.67,3.1,2.31,3.99,1.69,.92,3.46,.64,5.22,.63,.14,0,.28-.12,.41-.21,1.43-.91,1.88-2.39,2.16-3.91,.31-1.63,.46-3.29,.68-4.93,.32-2.31,.02-4.56-1.4-6.4Zm-9.12,39.14c-1.68-.22-3.21-.83-4.61-1.77-1.13-.76-1.13-1.39,.11-2.06,.87-.47,1.74-.99,2.76-1.11,.67-.08,.66-.58,.61-1.08-.07-.62-.52-.72-.96-.57-1.55,.5-3.14,.89-4.36,2.1-1.44,1.42-1.5,2.93,.08,3.85,1.46,.85,3.01,1.55,4.68,1.98,1.17,.29,1.74-.06,1.79-1.26-.05,0-.08-.03-.1-.08Zm-9.82,5.5c-.35-.36-.7-.28-1.09-.08-.29,.14-.5,.37-.74,.57-1.46,1.23-3.19,1.82-5.05,1.63-1.77-.19-3.29-1.05-4.44-2.47-.32-.4-.83-.82-1.31-.3-.38,.43-.42,.99,.06,1.5,1.75,1.88,3.83,3.01,6.61,3.04,.82,.17,1.75-.25,2.61-.53,1.25-.41,2.47-1.07,3.3-2.19,.27-.36,.45-.76,.05-1.17Zm-2.21-7.73c-1.18-.99-2.51-.83-3.85-.85-.63,0-1.28-.04-1.91,.01-1.76,.13-2.86,2.25-1.82,3.62,2,2.64,5.39,2.83,7.79,.94,1.31-1.03,1.07-2.66-.21-3.72Zm-6.81-29.92c-.26-1.39-.23-2.8-.51-4.2-.33-1.72-.27-3.42-1.25-5.06-.92-1.53-3.51-4.2-5.92-3.83-.9,.14-1.77,.53-2.16,1.17-1.29,2.13-1.89,4.51-1.78,7.04,.05,1.19,.13,2.41-.01,3.59-.18,1.56,.63,2.75,1.27,3.99,.35,.67,.81,1.33,1.46,1.85,1.07,.85,2.3,.42,3.24,.53,.61,0,1.01,.01,1.41,0,2.96-.02,4.79-2.16,4.25-5.08Zm-4.49,27.82c-.54-.55-1.62-.45-1.72-1.47l-.1,.02-.1-.04c-.39-.02-.77-.06-.94-.49l-.04-.03c-.3,.02-.42-.18-.51-.42-.16-.07-.31-.15-.47-.23-.35-.02-.65-.12-.72-.52-.35-.11-.71-.22-1.06-.33-.1,.02-.19,.05-.28,.07-.84,1.19-.79,1.32,.4,2.25,.74,.58,1.89,.59,2.28,1.64,.04,.02,.07,.05,.1,.08,.37-.18,.79-.13,.86,.26,.08,.43-.36,.69-.72,.85-1.3,.6-2.69,.68-4.09,.65-.14,.47-.77,.83-.45,1.39,.32,.56,.92,.3,1.41,.33,2.18,.11,4.13-.65,5.97-1.72,1.1-.65,1.07-1.36,.18-2.29Zm-16.3,.79c-.56-.98-1.4-1.8-1.79-2.82-.94-2.48-3.33-3.22-5.33-3.93-1.44-.51-3.29-.6-4.98-.69-.78-.03-1.32,.52-2.03,.49-2.1-.07-3.64,1.23-5.16,2.31-1.4,.98-2.45,2.44-3.36,3.96-.97,1.64-1.46,3.44-1.98,5.22-.6,2.09,.7,4.06,.77,6.13,0,.03,.03,.07,.05,.1,1.9,3.49,4.84,5.5,8.76,6.04,2.43,.33,4.79,.25,7.26-.36,2.29-.56,4.14-1.43,5.71-3.13,2.08-2.26,3.11-4.89,3.14-8.04-.29-1.7-.04-3.51-1.06-5.28Zm0,0c-.56-.98-1.4-1.8-1.79-2.82-.94-2.48-3.33-3.22-5.33-3.93-1.44-.51-3.29-.6-4.98-.69-.78-.03-1.32,.52-2.03,.49-2.1-.07-3.64,1.23-5.16,2.31-1.4,.98-2.45,2.44-3.36,3.96-.97,1.64-1.46,3.44-1.98,5.22-.6,2.09,.7,4.06,.77,6.13,0,.03,.03,.07,.05,.1,1.9,3.49,4.84,5.5,8.76,6.04,2.43,.33,4.79,.25,7.26-.36,2.29-.56,4.14-1.43,5.71-3.13,2.08-2.26,3.11-4.89,3.14-8.04-.29-1.7-.04-3.51-1.06-5.28Zm16.3-.79c-.54-.55-1.62-.45-1.72-1.47l-.1,.02-.1-.04c-.39-.02-.77-.06-.94-.49l-.04-.03c-.3,.02-.42-.18-.51-.42-.16-.07-.31-.15-.47-.23-.35-.02-.65-.12-.72-.52-.35-.11-.71-.22-1.06-.33-.1,.02-.19,.05-.28,.07-.84,1.19-.79,1.32,.4,2.25,.74,.58,1.89,.59,2.28,1.64,.04,.02,.07,.05,.1,.08,.37-.18,.79-.13,.86,.26,.08,.43-.36,.69-.72,.85-1.3,.6-2.69,.68-4.09,.65-.14,.47-.77,.83-.45,1.39,.32,.56,.92,.3,1.41,.33,2.18,.11,4.13-.65,5.97-1.72,1.1-.65,1.07-1.36,.18-2.29Zm4.49-27.82c-.26-1.39-.23-2.8-.51-4.2-.33-1.72-.27-3.42-1.25-5.06-.92-1.53-3.51-4.2-5.92-3.83-.9,.14-1.77,.53-2.16,1.17-1.29,2.13-1.89,4.51-1.78,7.04,.05,1.19,.13,2.41-.01,3.59-.18,1.56,.63,2.75,1.27,3.99,.35,.67,.81,1.33,1.46,1.85,1.07,.85,2.3,.42,3.24,.53,.61,0,1.01,.01,1.41,0,2.96-.02,4.79-2.16,4.25-5.08Zm6.81,29.92c-1.18-.99-2.51-.83-3.85-.85-.63,0-1.28-.04-1.91,.01-1.76,.13-2.86,2.25-1.82,3.62,2,2.64,5.39,2.83,7.79,.94,1.31-1.03,1.07-2.66-.21-3.72Zm2.21,7.73c-.35-.36-.7-.28-1.09-.08-.29,.14-.5,.37-.74,.57-1.46,1.23-3.19,1.82-5.05,1.63-1.77-.19-3.29-1.05-4.44-2.47-.32-.4-.83-.82-1.31-.3-.38,.43-.42,.99,.06,1.5,1.75,1.88,3.83,3.01,6.61,3.04,.82,.17,1.75-.25,2.61-.53,1.25-.41,2.47-1.07,3.3-2.19,.27-.36,.45-.76,.05-1.17Zm9.82-5.5c-1.68-.22-3.21-.83-4.61-1.77-1.13-.76-1.13-1.39,.11-2.06,.87-.47,1.74-.99,2.76-1.11,.67-.08,.66-.58,.61-1.08-.07-.62-.52-.72-.96-.57-1.55,.5-3.14,.89-4.36,2.1-1.44,1.42-1.5,2.93,.08,3.85,1.46,.85,3.01,1.55,4.68,1.98,1.17,.29,1.74-.06,1.79-1.26-.05,0-.08-.03-.1-.08Zm9.12-39.14c-2.02-2.61-5.1-1.85-6.23-.2-1.93,2.81-3.2,5.95-3.16,9.47,0,.52-.04,1.04,0,1.56,.14,1.68,.67,3.1,2.31,3.99,1.69,.92,3.46,.64,5.22,.63,.14,0,.28-.12,.41-.21,1.43-.91,1.88-2.39,2.16-3.91,.31-1.63,.46-3.29,.68-4.93,.32-2.31,.02-4.56-1.4-6.4Zm21.31,39.23c-1.32-2.48-3.78-3.66-6.24-4.48-2.35-.8-4.88-.9-7.4-.18-.75,.21-1.45,.63-2.14,.74-2.06,.33-3.33,1.77-4.51,3.12-1.68,1.92-2.67,4.23-3.32,6.8-.71,2.81-.03,5.15,1.11,7.57,.86,1.83,2.28,2.98,4.08,3.9,1.85,.94,3.68,1.7,5.79,1.72,3.12,.03,6.04-.54,8.91-1.87,1.42-.66,2.6-1.66,3.32-2.7,1.54-2.24,2.8-4.77,2.29-7.82,.71-2.56-.74-4.66-1.89-6.8Zm0,0c-1.32-2.48-3.78-3.66-6.24-4.48-2.35-.8-4.88-.9-7.4-.18-.75,.21-1.45,.63-2.14,.74-2.06,.33-3.33,1.77-4.51,3.12-1.68,1.92-2.67,4.23-3.32,6.8-.71,2.81-.03,5.15,1.11,7.57,.86,1.83,2.28,2.98,4.08,3.9,1.85,.94,3.68,1.7,5.79,1.72,3.12,.03,6.04-.54,8.91-1.87,1.42-.66,2.6-1.66,3.32-2.7,1.54-2.24,2.8-4.77,2.29-7.82,.71-2.56-.74-4.66-1.89-6.8Zm-22.75-23.99c1.43-.91,1.88-2.39,2.16-3.91,.31-1.63,.46-3.29,.68-4.93,.32-2.31,.02-4.56-1.4-6.4-2.02-2.61-5.1-1.85-6.23-.2-1.93,2.81-3.2,5.95-3.16,9.47,0,.52-.04,1.04,0,1.56,.14,1.68,.67,3.1,2.31,3.99,1.69,.92,3.46,.64,5.22,.63,.14,0,.28-.12,.41-.21Zm-12.29,22.13c-1.13-.76-1.13-1.39,.11-2.06,.87-.47,1.74-.99,2.76-1.11,.67-.08,.66-.58,.61-1.08-.07-.62-.52-.72-.96-.57-1.55,.5-3.14,.89-4.36,2.1-1.44,1.42-1.5,2.93,.08,3.85,1.46,.85,3.01,1.55,4.68,1.98,1.17,.29,1.74-.06,1.79-1.26-.05,0-.08-.03-.1-.08-1.68-.22-3.21-.83-4.61-1.77Zm-6.3,7.19c-.29,.14-.5,.37-.74,.57-1.46,1.23-3.19,1.82-5.05,1.63-1.77-.19-3.29-1.05-4.44-2.47-.32-.4-.83-.82-1.31-.3-.38,.43-.42,.99,.06,1.5,1.75,1.88,3.83,3.01,6.61,3.04,.82,.17,1.75-.25,2.61-.53,1.25-.41,2.47-1.07,3.3-2.19,.27-.36,.45-.76,.05-1.17-.35-.36-.7-.28-1.09-.08Zm-8.7-4.87c2,2.64,5.39,2.83,7.79,.94,1.31-1.03,1.07-2.66-.21-3.72-1.18-.99-2.51-.83-3.85-.85-.63,0-1.28-.04-1.91,.01-1.76,.13-2.86,2.25-1.82,3.62Zm-8.13-28.15c1.07,.85,2.3,.42,3.24,.53,.61,0,1.01,.01,1.41,0,2.96-.02,4.79-2.16,4.25-5.08-.26-1.39-.23-2.8-.51-4.2-.33-1.72-.27-3.42-1.25-5.06-.92-1.53-3.51-4.2-5.92-3.83-.9,.14-1.77,.53-2.16,1.17-1.29,2.13-1.89,4.51-1.78,7.04,.05,1.19,.13,2.41-.01,3.59-.18,1.56,.63,2.75,1.27,3.99,.35,.67,.81,1.33,1.46,1.85Zm4.41,23.27c-.54-.55-1.62-.45-1.72-1.47l-.1,.02-.1-.04c-.39-.02-.77-.06-.94-.49l-.04-.03c-.3,.02-.42-.18-.51-.42-.16-.07-.31-.15-.47-.23-.35-.02-.65-.12-.72-.52-.35-.11-.71-.22-1.06-.33-.1,.02-.19,.05-.28,.07-.84,1.19-.79,1.32,.4,2.25,.74,.58,1.89,.59,2.28,1.64,.04,.02,.07,.05,.1,.08,.37-.18,.79-.13,.86,.26,.08,.43-.36,.69-.72,.85-1.3,.6-2.69,.68-4.09,.65-.14,.47-.77,.83-.45,1.39,.32,.56,.92,.3,1.41,.33,2.18,.11,4.13-.65,5.97-1.72,1.1-.65,1.07-1.36,.18-2.29Zm-18.09-2.03c-.94-2.48-3.33-3.22-5.33-3.93-1.44-.51-3.29-.6-4.98-.69-.78-.03-1.32,.52-2.03,.49-2.1-.07-3.64,1.23-5.16,2.31-1.4,.98-2.45,2.44-3.36,3.96-.97,1.64-1.46,3.44-1.98,5.22-.6,2.09,.7,4.06,.77,6.13,0,.03,.03,.07,.05,.1,1.9,3.49,4.84,5.5,8.76,6.04,2.43,.33,4.79,.25,7.26-.36,2.29-.56,4.14-1.43,5.71-3.13,2.08-2.26,3.11-4.89,3.14-8.04-.29-1.7-.04-3.51-1.06-5.28-.56-.98-1.4-1.8-1.79-2.82Zm97.91,30.41c-1.22-1.97-2.73-3.68-4.8-4.82-1.91-1.05-3.78-2.17-5.71-3.17-1.81-.94-3.71-1.74-5.72-2.17-1.48-.32-1.88-.54-1.96-2.01-.16-2.79-.7-5.54-1.53-8.18-1.06-3.35-2.5-6.57-4.3-9.61-.39-.66-.98-1.27-.92-2.14-.12-.26-.25-.52-.38-.78-.32,.02-.4-.15-.36-.43-.84-1.13-1.68-2.27-2.52-3.4-.18-.25-.43-.47-.31-.83v-.02c-1.33-.75-2.15-2.02-3.18-3.06-1.54-1.55-3.21-2.92-4.93-4.24-.39-.3-.88-.5-1.01-1.05l-.04-.02c-1.26-.26-2.09-1.22-2.98-2-.41-.35-.25-1.18,.12-1.67,1.18-1.56,1.57-3.5,2.54-5.15,.21-.37,.25-.85,.8-.91,.04-.32,.08-.64,.12-.97-.15-.14-.13-.31-.04-.47-.16-.3-.05-.44,.27-.45,.04-.09,.07-.17,.11-.26,.04-.55,.13-1.08,.56-1.48,.12-.9,.29-1.78,.67-2.61-.08-.79-.03-1.59,.13-2.37,.4-1.9,.39-3.79-.03-5.69-.11-.49-.25-1.01,.03-1.51-.19-.27-.21-.58-.2-.89-.11-.03-.29-.03-.32-.09-.43-1.03-.83-2.06-1.24-3.09-3.49-4.9-9.2-6.86-14.56-5.36-3.02,.84-5.14,2.99-6.79,5.61-1.91,3.04-3.24,6.31-4.02,9.82-.33,1.52-.72,3.01-.8,4.57-.02,2.31-.52,4.56-.97,6.81-.02,.37-.03,.74-.05,1.1,.18,.61-.22,.76-.67,.86-.95,.21-1.84-.14-2.73-.33-.72-.15-.55-.9-.51-1.43,.18-2.78,.38-5.56,.29-8.36-.08-2.39-.03-4.79-.3-7.16-.21-1.93-.74-3.81-1.39-5.68-.72-2.08-1.66-3.91-3.23-5.41-.62-.59-1.32-1.11-2.02-1.61-.36-.26-.75-.45-.86-.92-.07,.01-.13,0-.18-.06-.61,.04-1.11-.12-1.65-.48-1.02-.68-2.29-.64-3.45-.71-2.33-.14-4.69-.24-6.81,1.08-.2,.13-.54,.04-.81,.05-2.37,.95-4.07,2.71-5.42,4.79-2.65,4.12-2.45,8.76-2.04,13.31,.31,3.39,.72,6.79,1.89,10.05,.61,1.67,.22,2.13-1.56,2.53-1.75,.38-5.06,1.51-11.63,4.11-2.21,.87-5.24,2.57-8.36,6.2-1.85,2.17-3.69,4.33-5.54,6.49-.22,.28-.52,.68-.86,1.17-1.48,2.16-2.25,4.01-2.79,5.32-.89,2.13-1.44,4.09-1.79,5.73-.16,.4-.33,.8-.5,1.19-.44,1.85-.55,3.34-.57,4.36-.02,1.1-.2,1.96-.16,3.45,.03,1.4-.38,2.14-.75,2.55-.68,.77-1.36,.59-3.36,1.58-.94,.46-1.62,.91-2.16,1.27-.85,.55-1.59,1.13-2.64,1.95-.66,.52-1.09,.94-1.57,1.41-2.21,2.17-3.41,4.16-3.7,4.64-.83,1.42-1.28,2.57-1.63,3.49-1.07,2.82-1.35,5.08-1.87,8.19C.14,96.52,0,97.66,0,99.03c-.01,1.72,.51,3.07,.46,4.5-.12,3.05,.98,5.81,2.16,8.45,1.94,4.37,4.67,8.24,8.35,11.43,3.05,2.65,6.47,4.67,9.99,6.59,1.78,.97,3.78,1.34,5.67,2.02,2.83,1.04,5.73,1.85,8.66,2.58,2.08,.52,4.21,.79,6.3,1.21,3.01,.62,6.06,.93,9.09,1.32,2.36,.31,4.78,.35,7.14,.66,5.51,.74,11.06,.71,16.58,1.01,5.75,.31,11.49-.48,17.24-.44,.2,0,.39-.06,.59-.07,3.94-.23,7.83-1.09,11.79-1.12,.47,0,.98,.15,1.39,0,3.03-1.12,6.26-1.37,9.36-2.23,5.82-1.61,11.17-4.16,16.23-7.39,2.86-1.83,5.45-3.98,7.8-6.44,1.52-1.59,3.21-3.05,4.5-4.82,2.28-3.15,3.94-6.65,5.14-10.37,.67-2.05,1.47-4.03,1.52-6.22,.12-5.49-1-10.65-3.92-15.34ZM20.78,65.99c.32-2.59,.86-4.48,1.01-5.02,1-3.44,2.35-5.84,3.48-7.82,1.32-2.33,1.16-1.56,4.67-7.02,.53-.82,.9-1.4,1.57-2.15,.71-.8,1.49-1.46,4.36-3.44,1.39-.96,2.09-1.44,2.63-1.78,2.43-1.51,5.36-3.33,9.16-4,3.83-.68,5.74-1,6.2-.95,1.38,.17,1.57-.42,1.14-1.72-.62-1.86-1.68-3.64-1.43-5.73-1.01-4.24-1.58-8.54-1.31-12.9,.15-2.38,.6-4.72,2.24-6.63,.55-1.94,2.2-2.77,3.73-3.71,2.38-1.46,5.02-1.42,7.63-1.09,2.24,.29,4.17,1.42,5.79,3.01,.09,.09,.07,.3,.11,.45,.71,.21,1.01,.78,1.2,1.43,.7,.17,.99,.86,1.22,1.35,.9,1.96,1.74,3.98,1.36,6.25,.22,3.57,.83,7.13,.55,10.71-.13,1.66-.15,3.36-.8,4.95,.12,.14,.12,.28-.04,.39,.29,.12,.28,.32,.16,.55,.05,.96,.11,1.92,.17,2.88l.07,.06c.54-.04,1.1-.15,1.64,.04,.34-.12,.67-.1,1.01,0,.45-.07,.94-.31,1.21,.31,1.28-.16,2.43,.71,3.72,.45,.7-1.12,.59-2.41,.79-3.64,.07-.4-.16-.9,.39-1.14,.02-.4,.04-.8,.06-1.19,.09-2.49,.02-4.96,.64-7.44,.83-3.26,1.53-6.55,3.24-9.5,.6-1.01,.95-2.25,2.14-2.83,.89-.75,1.46-1.8,2.5-2.44,2.17-1.34,4.37-1.74,6.92-1.15,2.69,.62,4.87,1.86,6.56,3.98,1.3,1.62,1.98,3.55,2.27,5.56,.4,2.67-.07,5.31-.73,7.9,.16,.71,.03,1.3-.67,1.66-.61,1.72-.98,3.55-2.29,4.95,.04,.07,.02,.13-.04,.18,.21,1.19-.69,1.98-1.12,2.92-.39,.84-.69,1.74-1.21,2.54-.68,1.04-.62,2.08,.26,3.02,.42,.08,.62,.43,.86,.71,1.19,.41,2.4,.76,3.07,1.96,1.04,.88,2.09,1.76,3.13,2.64,1.89,.52,2.74,2.25,4.04,3.46,.15,.14,.08,.37-.19,.42,.07,.07,.14,.14,.22,.21,.29-.18,.51-.07,.71,.17,1.86,2.18,3.61,4.45,5.03,6.95,.11,.21,.2,.43,.1,.68l.03,.04c1.17,.92,1.52,2.33,2.04,3.6,.29,.7,1,1.3,.77,2.19,.23,.81,.47,1.62,.7,2.43,.43,0,.57,.14,.3,.53,.03,.07,.06,.14,.08,.21,.01,.03-.01,.07-.02,.11,.51,.62,.96,1.26,.41,2.08-.13,.57,.6,.86,.46,1.43,.42,.04,.29,.32,.25,.56,.33,.1,.42,.32,.31,.63,.97,5.03,.91,10.02-.18,15.04-.88,4.09-3.59,6.55-7.02,8.45-1.04,.57-2.09,1.11-3.14,1.65-.49,.24-1,.49-1.58,.27-.11,.01-.21,.03-.32,.04-.24,.69-.93,.65-1.41,.72-1.52,.23-2.86,1.29-4.5,.95-.16,.02-.33,.05-.5,.07-.99,.92-2.34,.61-3.49,.97-.44,.14-.94,.08-1.42,.11-.14,.23-.31,.41-.59,.17-.13,0-.26,.02-.39,.03-.18,.37-.47,.38-.8,.24-.84,.23-1.7,.17-2.56,.23-.35,.49-.84,.27-1.29,.24-.2,.04-.4,.07-.55-.14-.36,.26-.75,.17-1.14,.1v.1s-.11,.02-.11,.02c-.5,.79-1.31,.31-1.96,.47-.96,.23-1.95,.33-2.93,.03-.34,.02-.67,.04-1.01,.06-1.48,.54-3,.38-4.52,.21-.17,.01-.34,.01-.52,.02-.65,.59-1.51,.43-2.25,.49-6.37,.48-12.76,.61-19.13-.02-1.5-.14-3.07-.1-4.52-.71-.17-.02-.34-.04-.51-.06-.2,.2-.45,.18-.68,.13-3.48-.71-7-1.14-10.43-2.17-2.42-.73-4.76-1.7-7.2-2.36-.68-.18-1.2-.72-1.89-.96-3.61-1.22-6.95-2.97-9.92-5.38-.4-.32-.86-.61-.82-1.22-1.35-1.27-2.5-2.65-2.9-4.52l-.02-.04c-.57-.23-.38-.74-.44-1.16-.02-.08-.05-.17-.07-.25-.55-.26-.55-.72-.45-1.21-.03-.21-.07-.42-.1-.63-.58-.65-.97-1.37-.87-2.27-.84-4.65-.64-8.45-.33-10.97Zm75.59,.41c-.71,2.81-.03,5.15,1.11,7.57,.86,1.83,2.28,2.98,4.08,3.9,1.85,.94,3.68,1.7,5.79,1.72,3.12,.03,6.04-.54,8.91-1.87,1.42-.66,2.6-1.66,3.32-2.7,1.54-2.24,2.8-4.77,2.29-7.82,.71-2.56-.74-4.66-1.89-6.8-1.32-2.48-3.78-3.66-6.24-4.48-2.35-.8-4.88-.9-7.4-.18-.75,.21-1.45,.63-2.14,.74-2.06,.33-3.33,1.77-4.51,3.12-1.68,1.92-2.67,4.23-3.32,6.8Zm-4.77-30.41c1.69,.92,3.46,.64,5.22,.63,.14,0,.28-.12,.41-.21,1.43-.91,1.88-2.39,2.16-3.91,.31-1.63,.46-3.29,.68-4.93,.32-2.31,.02-4.56-1.4-6.4-2.02-2.61-5.1-1.85-6.23-.2-1.93,2.81-3.2,5.95-3.16,9.47,0,.52-.04,1.04,0,1.56,.14,1.68,.67,3.1,2.31,3.99Zm-8.42,23.68c1.46,.85,3.01,1.55,4.68,1.98,1.17,.29,1.74-.06,1.79-1.26-.05,0-.08-.03-.1-.08-1.68-.22-3.21-.83-4.61-1.77-1.13-.76-1.13-1.39,.11-2.06,.87-.47,1.74-.99,2.76-1.11,.67-.08,.66-.58,.61-1.08-.07-.62-.52-.72-.96-.57-1.55,.5-3.14,.89-4.36,2.1-1.44,1.42-1.5,2.93,.08,3.85Zm-10.33,8.26c-1.77-.19-3.29-1.05-4.44-2.47-.32-.4-.83-.82-1.31-.3-.38,.43-.42,.99,.06,1.5,1.75,1.88,3.83,3.01,6.61,3.04,.82,.17,1.75-.25,2.61-.53,1.25-.41,2.47-1.07,3.3-2.19,.27-.36,.45-.76,.05-1.17-.35-.36-.7-.28-1.09-.08-.29,.14-.5,.37-.74,.57-1.46,1.23-3.19,1.82-5.05,1.63Zm-2.91-7.07c2,2.64,5.39,2.83,7.79,.94,1.31-1.03,1.07-2.66-.21-3.72-1.18-.99-2.51-.83-3.85-.85-.63,0-1.28-.04-1.91,.01-1.76,.13-2.86,2.25-1.82,3.62Zm-8.13-28.15c1.07,.85,2.3,.42,3.24,.53,.61,0,1.01,.01,1.41,0,2.96-.02,4.79-2.16,4.25-5.08-.26-1.39-.23-2.8-.51-4.2-.33-1.72-.27-3.42-1.25-5.06-.92-1.53-3.51-4.2-5.92-3.83-.9,.14-1.77,.53-2.16,1.17-1.29,2.13-1.89,4.51-1.78,7.04,.05,1.19,.13,2.41-.01,3.59-.18,1.56,.63,2.75,1.27,3.99,.35,.67,.81,1.33,1.46,1.85Zm-1.74,27.28c2.18,.11,4.13-.65,5.97-1.72,1.1-.65,1.07-1.36,.18-2.29-.54-.55-1.62-.45-1.72-1.47l-.1,.02-.1-.04c-.39-.02-.77-.06-.94-.49l-.04-.03c-.3,.02-.42-.18-.51-.42-.16-.07-.31-.15-.47-.23-.35-.02-.65-.12-.72-.52-.35-.11-.71-.22-1.06-.33-.1,.02-.19,.05-.28,.07-.84,1.19-.79,1.32,.4,2.25,.74,.58,1.89,.59,2.28,1.64,.04,.02,.07,.05,.1,.08,.37-.18,.79-.13,.86,.26,.08,.43-.36,.69-.72,.85-1.3,.6-2.69,.68-4.09,.65-.14,.47-.77,.83-.45,1.39,.32,.56,.92,.3,1.41,.33Zm-33.96,7.55c1.9,3.49,4.84,5.5,8.76,6.04,2.43,.33,4.79,.25,7.26-.36,2.29-.56,4.14-1.43,5.71-3.13,2.08-2.26,3.11-4.89,3.14-8.04-.29-1.7-.04-3.51-1.06-5.28-.56-.98-1.4-1.8-1.79-2.82-.94-2.48-3.33-3.22-5.33-3.93-1.44-.51-3.29-.6-4.98-.69-.78-.03-1.32,.52-2.03,.49-2.1-.07-3.64,1.23-5.16,2.31-1.4,.98-2.45,2.44-3.36,3.96-.97,1.64-1.46,3.44-1.98,5.22-.6,2.09,.7,4.06,.77,6.13,0,.03,.03,.07,.05,.1Zm23.81-10.77c-.56-.98-1.4-1.8-1.79-2.82-.94-2.48-3.33-3.22-5.33-3.93-1.44-.51-3.29-.6-4.98-.69-.78-.03-1.32,.52-2.03,.49-2.1-.07-3.64,1.23-5.16,2.31-1.4,.98-2.45,2.44-3.36,3.96-.97,1.64-1.46,3.44-1.98,5.22-.6,2.09,.7,4.06,.77,6.13,0,.03,.03,.07,.05,.1,1.9,3.49,4.84,5.5,8.76,6.04,2.43,.33,4.79,.25,7.26-.36,2.29-.56,4.14-1.43,5.71-3.13,2.08-2.26,3.11-4.89,3.14-8.04-.29-1.7-.04-3.51-1.06-5.28Zm16.3-.79c-.54-.55-1.62-.45-1.72-1.47l-.1,.02-.1-.04c-.39-.02-.77-.06-.94-.49l-.04-.03c-.3,.02-.42-.18-.51-.42-.16-.07-.31-.15-.47-.23-.35-.02-.65-.12-.72-.52-.35-.11-.71-.22-1.06-.33-.1,.02-.19,.05-.28,.07-.84,1.19-.79,1.32,.4,2.25,.74,.58,1.89,.59,2.28,1.64,.04,.02,.07,.05,.1,.08,.37-.18,.79-.13,.86,.26,.08,.43-.36,.69-.72,.85-1.3,.6-2.69,.68-4.09,.65-.14,.47-.77,.83-.45,1.39,.32,.56,.92,.3,1.41,.33,2.18,.11,4.13-.65,5.97-1.72,1.1-.65,1.07-1.36,.18-2.29Zm4.49-27.82c-.26-1.39-.23-2.8-.51-4.2-.33-1.72-.27-3.42-1.25-5.06-.92-1.53-3.51-4.2-5.92-3.83-.9,.14-1.77,.53-2.16,1.17-1.29,2.13-1.89,4.51-1.78,7.04,.05,1.19,.13,2.41-.01,3.59-.18,1.56,.63,2.75,1.27,3.99,.35,.67,.81,1.33,1.46,1.85,1.07,.85,2.3,.42,3.24,.53,.61,0,1.01,.01,1.41,0,2.96-.02,4.79-2.16,4.25-5.08Zm6.81,29.92c-1.18-.99-2.51-.83-3.85-.85-.63,0-1.28-.04-1.91,.01-1.76,.13-2.86,2.25-1.82,3.62,2,2.64,5.39,2.83,7.79,.94,1.31-1.03,1.07-2.66-.21-3.72Zm2.21,7.73c-.35-.36-.7-.28-1.09-.08-.29,.14-.5,.37-.74,.57-1.46,1.23-3.19,1.82-5.05,1.63-1.77-.19-3.29-1.05-4.44-2.47-.32-.4-.83-.82-1.31-.3-.38,.43-.42,.99,.06,1.5,1.75,1.88,3.83,3.01,6.61,3.04,.82,.17,1.75-.25,2.61-.53,1.25-.41,2.47-1.07,3.3-2.19,.27-.36,.45-.76,.05-1.17Zm9.82-5.5c-1.68-.22-3.21-.83-4.61-1.77-1.13-.76-1.13-1.39,.11-2.06,.87-.47,1.74-.99,2.76-1.11,.67-.08,.66-.58,.61-1.08-.07-.62-.52-.72-.96-.57-1.55,.5-3.14,.89-4.36,2.1-1.44,1.42-1.5,2.93,.08,3.85,1.46,.85,3.01,1.55,4.68,1.98,1.17,.29,1.74-.06,1.79-1.26-.05,0-.08-.03-.1-.08Zm9.12-39.14c-2.02-2.61-5.1-1.85-6.23-.2-1.93,2.81-3.2,5.95-3.16,9.47,0,.52-.04,1.04,0,1.56,.14,1.68,.67,3.1,2.31,3.99,1.69,.92,3.46,.64,5.22,.63,.14,0,.28-.12,.41-.21,1.43-.91,1.88-2.39,2.16-3.91,.31-1.63,.46-3.29,.68-4.93,.32-2.31,.02-4.56-1.4-6.4Zm21.31,39.23c-1.32-2.48-3.78-3.66-6.24-4.48-2.35-.8-4.88-.9-7.4-.18-.75,.21-1.45,.63-2.14,.74-2.06,.33-3.33,1.77-4.51,3.12-1.68,1.92-2.67,4.23-3.32,6.8-.71,2.81-.03,5.15,1.11,7.57,.86,1.83,2.28,2.98,4.08,3.9,1.85,.94,3.68,1.7,5.79,1.72,3.12,.03,6.04-.54,8.91-1.87,1.42-.66,2.6-1.66,3.32-2.7,1.54-2.24,2.8-4.77,2.29-7.82,.71-2.56-.74-4.66-1.89-6.8Zm0,0c-1.32-2.48-3.78-3.66-6.24-4.48-2.35-.8-4.88-.9-7.4-.18-.75,.21-1.45,.63-2.14,.74-2.06,.33-3.33,1.77-4.51,3.12-1.68,1.92-2.67,4.23-3.32,6.8-.71,2.81-.03,5.15,1.11,7.57,.86,1.83,2.28,2.98,4.08,3.9,1.85,.94,3.68,1.7,5.79,1.72,3.12,.03,6.04-.54,8.91-1.87,1.42-.66,2.6-1.66,3.32-2.7,1.54-2.24,2.8-4.77,2.29-7.82,.71-2.56-.74-4.66-1.89-6.8Zm-21.31-39.23c-2.02-2.61-5.1-1.85-6.23-.2-1.93,2.81-3.2,5.95-3.16,9.47,0,.52-.04,1.04,0,1.56,.14,1.68,.67,3.1,2.31,3.99,1.69,.92,3.46,.64,5.22,.63,.14,0,.28-.12,.41-.21,1.43-.91,1.88-2.39,2.16-3.91,.31-1.63,.46-3.29,.68-4.93,.32-2.31,.02-4.56-1.4-6.4Zm-9.12,39.14c-1.68-.22-3.21-.83-4.61-1.77-1.13-.76-1.13-1.39,.11-2.06,.87-.47,1.74-.99,2.76-1.11,.67-.08,.66-.58,.61-1.08-.07-.62-.52-.72-.96-.57-1.55,.5-3.14,.89-4.36,2.1-1.44,1.42-1.5,2.93,.08,3.85,1.46,.85,3.01,1.55,4.68,1.98,1.17,.29,1.74-.06,1.79-1.26-.05,0-.08-.03-.1-.08Zm-9.82,5.5c-.35-.36-.7-.28-1.09-.08-.29,.14-.5,.37-.74,.57-1.46,1.23-3.19,1.82-5.05,1.63-1.77-.19-3.29-1.05-4.44-2.47-.32-.4-.83-.82-1.31-.3-.38,.43-.42,.99,.06,1.5,1.75,1.88,3.83,3.01,6.61,3.04,.82,.17,1.75-.25,2.61-.53,1.25-.41,2.47-1.07,3.3-2.19,.27-.36,.45-.76,.05-1.17Zm-2.21-7.73c-1.18-.99-2.51-.83-3.85-.85-.63,0-1.28-.04-1.91,.01-1.76,.13-2.86,2.25-1.82,3.62,2,2.64,5.39,2.83,7.79,.94,1.31-1.03,1.07-2.66-.21-3.72Zm-6.81-29.92c-.26-1.39-.23-2.8-.51-4.2-.33-1.72-.27-3.42-1.25-5.06-.92-1.53-3.51-4.2-5.92-3.83-.9,.14-1.77,.53-2.16,1.17-1.29,2.13-1.89,4.51-1.78,7.04,.05,1.19,.13,2.41-.01,3.59-.18,1.56,.63,2.75,1.27,3.99,.35,.67,.81,1.33,1.46,1.85,1.07,.85,2.3,.42,3.24,.53,.61,0,1.01,.01,1.41,0,2.96-.02,4.79-2.16,4.25-5.08Zm-4.49,27.82c-.54-.55-1.62-.45-1.72-1.47l-.1,.02-.1-.04c-.39-.02-.77-.06-.94-.49l-.04-.03c-.3,.02-.42-.18-.51-.42-.16-.07-.31-.15-.47-.23-.35-.02-.65-.12-.72-.52-.35-.11-.71-.22-1.06-.33-.1,.02-.19,.05-.28,.07-.84,1.19-.79,1.32,.4,2.25,.74,.58,1.89,.59,2.28,1.64,.04,.02,.07,.05,.1,.08,.37-.18,.79-.13,.86,.26,.08,.43-.36,.69-.72,.85-1.3,.6-2.69,.68-4.09,.65-.14,.47-.77,.83-.45,1.39,.32,.56,.92,.3,1.41,.33,2.18,.11,4.13-.65,5.97-1.72,1.1-.65,1.07-1.36,.18-2.29Zm-16.3,.79c-.56-.98-1.4-1.8-1.79-2.82-.94-2.48-3.33-3.22-5.33-3.93-1.44-.51-3.29-.6-4.98-.69-.78-.03-1.32,.52-2.03,.49-2.1-.07-3.64,1.23-5.16,2.31-1.4,.98-2.45,2.44-3.36,3.96-.97,1.64-1.46,3.44-1.98,5.22-.6,2.09,.7,4.06,.77,6.13,0,.03,.03,.07,.05,.1,1.9,3.49,4.84,5.5,8.76,6.04,2.43,.33,4.79,.25,7.26-.36,2.29-.56,4.14-1.43,5.71-3.13,2.08-2.26,3.11-4.89,3.14-8.04-.29-1.7-.04-3.51-1.06-5.28Z"/>
    <path class="cls-3" d="M125.24,69.25c.11-.31,.02-.53-.31-.63,.04-.24,.17-.52-.25-.56,.14-.57-.59-.86-.46-1.43,.55-.82,.1-1.46-.41-2.08,.01-.04,.03-.08,.02-.11-.02-.07-.05-.14-.08-.21,.27-.39,.13-.54-.3-.53-.23-.81-.47-1.62-.7-2.43,.23-.89-.48-1.49-.77-2.19-.52-1.27-.87-2.68-2.04-3.6l-.03-.04c.1-.25,.01-.47-.1-.68-1.42-2.5-3.17-4.77-5.03-6.95-.2-.24-.42-.35-.71-.17-.08-.07-.15-.14-.22-.21,.27-.05,.34-.28,.19-.42-1.3-1.21-2.15-2.94-4.04-3.46-1.04-.88-2.09-1.76-3.13-2.64-.67-1.2-1.88-1.55-3.07-1.96-.24-.28-.44-.63-.86-.71-.88-.94-.94-1.98-.26-3.02,.52-.8,.82-1.7,1.21-2.54,.43-.94,1.33-1.73,1.12-2.92,.06-.05,.08-.11,.04-.18,1.31-1.4,1.68-3.23,2.29-4.95,.7-.36,.83-.95,.67-1.66,.66-2.59,1.13-5.23,.73-7.9-.29-2.01-.97-3.94-2.27-5.56-1.69-2.12-3.87-3.36-6.56-3.98-2.55-.59-4.75-.19-6.92,1.15-1.04,.64-1.61,1.69-2.5,2.44-1.19,.58-1.54,1.82-2.14,2.83-1.71,2.95-2.41,6.24-3.24,9.5-.62,2.48-.55,4.95-.64,7.44-.02,.39-.04,.79-.06,1.19-.55,.24-.32,.74-.39,1.14-.2,1.23-.09,2.52-.79,3.64-1.29,.26-2.44-.61-3.72-.45-.27-.62-.76-.38-1.21-.31-.34-.1-.67-.12-1.01,0-.54-.19-1.1-.08-1.64-.04l-.07-.06c-.06-.96-.12-1.92-.17-2.88,.12-.23,.13-.43-.16-.55,.16-.11,.16-.25,.04-.39,.65-1.59,.67-3.29,.8-4.95,.28-3.58-.33-7.14-.55-10.71,.38-2.27-.46-4.29-1.36-6.25-.23-.49-.52-1.18-1.22-1.35-.19-.65-.49-1.22-1.2-1.43-.04-.15-.02-.36-.11-.45-1.62-1.59-3.55-2.72-5.79-3.01-2.61-.33-5.25-.37-7.63,1.09-1.53,.94-3.18,1.77-3.73,3.71-1.64,1.91-2.09,4.25-2.24,6.63-.27,4.36,.3,8.66,1.31,12.9-.25,2.09,.81,3.87,1.43,5.73,.43,1.3,.24,1.89-1.14,1.72-.46-.05-2.37,.27-6.2,.95-3.8,.67-6.73,2.49-9.16,4-.54,.34-1.24,.82-2.63,1.78-2.87,1.98-3.65,2.64-4.36,3.44-.67,.75-1.04,1.33-1.57,2.15-3.51,5.46-3.35,4.69-4.67,7.02-1.13,1.98-2.48,4.38-3.48,7.82-.15,.54-.69,2.43-1.01,5.02-.31,2.52-.51,6.32,.33,10.97-.1,.9,.29,1.62,.87,2.27,.03,.21,.07,.42,.1,.63-.1,.49-.1,.95,.45,1.21,.02,.08,.05,.17,.07,.25,.06,.42-.13,.93,.44,1.16l.02,.04c.4,1.87,1.55,3.25,2.9,4.52-.04,.61,.42,.9,.82,1.22,2.97,2.41,6.31,4.16,9.92,5.38,.69,.24,1.21,.78,1.89,.96,2.44,.66,4.78,1.63,7.2,2.36,3.43,1.03,6.95,1.46,10.43,2.17,.23,.05,.48,.07,.68-.13,.17,.02,.34,.04,.51,.06,1.45,.61,3.02,.57,4.52,.71,6.37,.63,12.76,.5,19.13,.02,.74-.06,1.6,.1,2.25-.49,.18-.01,.35-.01,.52-.02,1.52,.17,3.04,.33,4.52-.21,.34-.02,.67-.04,1.01-.06,.98,.3,1.97,.2,2.93-.03,.65-.16,1.46,.32,1.96-.47l.1-.02v-.1c.4,.07,.79,.16,1.15-.1,.15,.21,.35,.18,.55,.14,.45,.03,.94,.25,1.29-.24,.86-.06,1.72,0,2.56-.23,.33,.14,.62,.13,.8-.24,.13-.01,.26-.02,.39-.03,.28,.24,.45,.06,.59-.17,.48-.03,.98,.03,1.42-.11,1.15-.36,2.5-.05,3.49-.97,.17-.02,.34-.05,.5-.07,1.64,.34,2.98-.72,4.5-.95,.48-.07,1.17-.03,1.41-.72,.11,0,.21-.03,.32-.04,.58,.22,1.09-.03,1.58-.27,1.05-.54,2.1-1.08,3.14-1.65,3.43-1.9,6.14-4.36,7.02-8.45,1.09-5.02,1.15-10.01,.18-15.04Zm-77.4,.84c-1.57,1.7-3.42,2.57-5.71,3.13-2.47,.61-4.83,.69-7.26,.36-3.92-.54-6.86-2.55-8.76-6.04-.02-.03-.05-.07-.05-.1-.07-2.07-1.37-4.04-.77-6.13,.52-1.78,1.01-3.58,1.98-5.22,.91-1.52,1.96-2.98,3.36-3.96,1.52-1.08,3.06-2.38,5.16-2.31,.71,.03,1.25-.52,2.03-.49,1.69,.09,3.54,.18,4.98,.69,2,.71,4.39,1.45,5.33,3.93,.39,1.02,1.23,1.84,1.79,2.82,1.02,1.77,.77,3.58,1.06,5.28-.03,3.15-1.06,5.78-3.14,8.04Zm23.92-12.85c.63-.05,1.28-.01,1.91-.01,1.34,.02,2.67-.14,3.85,.85,1.28,1.06,1.52,2.69,.21,3.72-2.4,1.89-5.79,1.7-7.79-.94-1.04-1.37,.06-3.49,1.82-3.62Zm-12.68-30.37c.14-1.18,.06-2.4,.01-3.59-.11-2.53,.49-4.91,1.78-7.04,.39-.64,1.26-1.03,2.16-1.17,2.41-.37,5,2.3,5.92,3.83,.98,1.64,.92,3.34,1.25,5.06,.28,1.4,.25,2.81,.51,4.2,.54,2.92-1.29,5.06-4.25,5.08-.4,.01-.8,0-1.41,0-.94-.11-2.17,.32-3.24-.53-.65-.52-1.11-1.18-1.46-1.85-.64-1.24-1.45-2.43-1.27-3.99Zm6.96,31.4c-1.84,1.07-3.79,1.83-5.97,1.72-.49-.03-1.09,.23-1.41-.33-.32-.56,.31-.92,.45-1.39,1.4,.03,2.79-.05,4.09-.65,.36-.16,.8-.42,.72-.85-.07-.39-.49-.44-.86-.26-.03-.03-.06-.06-.1-.08-.39-1.05-1.54-1.06-2.28-1.64-1.19-.93-1.24-1.06-.4-2.25,.09-.02,.18-.05,.28-.07,.35,.11,.71,.22,1.06,.33,.07,.4,.37,.5,.72,.52,.16,.08,.31,.16,.47,.23,.09,.24,.21,.44,.51,.42l.04,.03c.17,.43,.55,.47,.94,.49l.1,.04,.1-.02c.1,1.02,1.18,.92,1.72,1.47,.89,.93,.92,1.64-.18,2.29Zm13.64,8.71c-.83,1.12-2.05,1.78-3.3,2.19-.86,.28-1.79,.7-2.61,.53-2.78-.03-4.86-1.16-6.61-3.04-.48-.51-.44-1.07-.06-1.5,.48-.52,.99-.1,1.31,.3,1.15,1.42,2.67,2.28,4.44,2.47,1.86,.19,3.59-.4,5.05-1.63,.24-.2,.45-.43,.74-.57,.39-.2,.74-.28,1.09,.08,.4,.41,.22,.81-.05,1.17Zm8.18-5.33c-1.67-.43-3.22-1.13-4.68-1.98-1.58-.92-1.52-2.43-.08-3.85,1.22-1.21,2.81-1.6,4.36-2.1,.44-.15,.89-.05,.96,.57,.05,.5,.06,1-.61,1.08-1.02,.12-1.89,.64-2.76,1.11-1.24,.67-1.24,1.3-.11,2.06,1.4,.94,2.93,1.55,4.61,1.77,.02,.05,.05,.07,.1,.08-.05,1.2-.62,1.55-1.79,1.26Zm3.74-25.66c-1.64-.89-2.17-2.31-2.31-3.99-.05-.52,0-1.04,0-1.56-.04-3.52,1.23-6.66,3.16-9.47,1.13-1.65,4.21-2.41,6.23,.2,1.42,1.84,1.72,4.09,1.4,6.4-.22,1.64-.37,3.3-.68,4.93-.28,1.52-.73,3-2.16,3.91-.13,.09-.27,.21-.41,.21-1.76,.01-3.53,.29-5.22-.63Zm27.98,39.03c-.72,1.04-1.9,2.04-3.32,2.7-2.87,1.33-5.79,1.9-8.91,1.87-2.11-.02-3.94-.78-5.79-1.72-1.8-.92-3.22-2.07-4.08-3.9-1.14-2.42-1.82-4.76-1.11-7.57,.65-2.57,1.64-4.88,3.32-6.8,1.18-1.35,2.45-2.79,4.51-3.12,.69-.11,1.39-.53,2.14-.74,2.52-.72,5.05-.62,7.4,.18,2.46,.82,4.92,2,6.24,4.48,1.15,2.14,2.6,4.24,1.89,6.8,.51,3.05-.75,5.58-2.29,7.82Z"/>
    <path class="cls-2" d="M145.24,107.05c.3,1.33-.66,2.26-1.22,3.22-1.64,2.82-3.49,5.52-5.74,7.9-2.49,2.63-5.03,5.19-8.2,7.08-1.86,1.11-3.61,2.42-5.59,3.35-.67,.31-1.28,.83-2.09,.71-.05-.27-.26-.3-.48-.29,.02-.79,.02-1.59,.05-2.38,.09-3.06-2.34-4.54-4.81-4.79-3.06-.31-5.46,1.94-5.67,5.07-.08,1.11,.88,2.75,1.85,3.15,0,.25,.14,.35,.37,.36,.42,.08,.83,.18,1.05,.6,.01,.45-.22,.56-.64,.65-.74,.17-1.43,.49-1.96,1.08-.18,.14-.38,.14-.58,.08-.17-.26-.39-.17-.63-.12-1.11,.22-2.22,.49-3.3,.75-1.13,.27-2.49-.07-3.42,.94-.18,.14-.37,.15-.57,.07-.41-.26-.79-.32-1.12,.13-.34,.11-.68,.28-1.05,.11-1.27-.49-2.51,.04-3.73,.24-.62,.1-1.46-.37-1.9,.49-1.41,.07-2.83,.15-4.24,.22-4.04-.23-8.08-.07-12.12-.03-.13-.36,.24-.92-.43-1.05,0-.27,0-.54,0-.81,.22,0,.38-.09,.38-.32,0-.23-.17-.32-.38-.32-.02-.26-.05-.53-.07-.79,.02-.32,.06-.65-.42-.65-.26-.43-.53-.85-.79-1.28,.03-.28-.12-.41-.39-.41-.14-.06-.31-.09-.43-.19-1.59-1.25-3.21-1.97-5.3-1.04-2.03,.91-4.34,4.1-3.5,6.71-1.31,.25-2.67-.19-3.97,.24-.4-.03-.8-.1-1.19-.1-4.72,.02-9.39-.69-14.04-1.32-5.08-.68-10.19-1.33-15.15-2.66-3.25-.87-6.43-1.95-9.53-3.32-3.01-1.33-5.91-2.85-8.61-4.71-3.43-2.35-6.25-5.32-8.47-8.83-.5-.79-1.24-1.5-1.16-2.56-.27-.89-.49-1.8-.83-2.66-.94-2.34-1.54-4.76-1.79-7.27,.83,.02,1.67,.07,2.5,.05,1.24-.03,3.33-1.9,3.5-3.13,.31-2.21-.76-5.48-3.43-6.48-.76-.29-1.62-.34-2.43-.51-.06-.02-.08-.06-.07-.12,.47-.16,.43-.52,.36-.9-.09-.13-.08-.26,.03-.38,.72-.07,.46-.58,.45-.99-.13-1.32,.75-2.3,1.22-3.39,.47-1.09,.98-2.22,1.8-3.15,.24,.55,.42,.99,1.08,1.38,1.63,.97,3.32,.49,4.97,.63,.27,.02,.59,.06,.8-.16,1.49-1.6,3.39-3.02,2.89-5.62-.25-1.26-.88-2.35-1.88-3.19,.59-.37,1.14-.81,1.77-1.08,.62-.27,1.15-.14,1.32,.69,.61,2.84,1.44,5.6,2.67,8.24,1.7,3.65,4.46,6.3,7.88,8.33,3.08,1.82,6.35,3.22,9.64,4.58,1.93,.8,3.97,1.36,6,1.9,2.46,.65,4.89,1.4,7.42,1.76,2.92,.42,5.82,.93,8.76,1.14,5.02,.36,10.05,.64,15.09,.38,5.46-.28,10.91-.59,16.36-1.03,4.42-.35,8.8-.83,13.12-1.79,3.77-.84,7.54-1.63,11.14-3.06,4.88-1.94,8.74-5.08,10.99-9.92,1.18-2.53,1.48-5.28,1.36-8.06-.08-1.74-.07-1.77,1.66-1.46,0,.29,.18,.35,.42,.46,1.01,.42,2.18,.58,2.88,1.57-.79,.82-.6,3.23,.28,3.96,1.62,1.36,3.51,1.9,5.57,1.64,.69-.09,1.7-.08,1.88-1.18,.33,.08,.66,.15,.99,.23,2.57,2.52,3.65,5.8,4.41,9.15,.41,1.8,.23,3.73,.24,5.61,.01,1.15-.11,2.31-.17,3.46-.68-.04-.28,.89-.86,.94,.02-1.04-.11-1.65-1.51-1.78-.95-.09-1.86,.04-2.68,.21-.94,.19-1.92,.8-2.61,1.5-1.05,1.07-1.02,4.33-.16,5.57,.73,1.05,1.91,1.34,3.01,1.72,1.11,.38,1.63,.03,1.97-1.13,.21-.73,.46-1.45,1.18-1.85Zm-82.82,6.37c0-2.56-1.46-4.6-3.89-5.4-.22-.07-.47-.07-.7-.11-2.58-.36-4.29,1.07-5.67,2.92-1.36,1.83-.82,4.95,.84,5.91,1.51,.88,3.1,1.28,4.86,1.22,2.84-.09,4.57-1.75,4.57-4.55Zm57.43-4.27c1.28,.33,2.76-.57,3.69-1.64,1.49-1.72,.96-5.49-.99-7.02-2.96-2.32-7.02-1.53-8.54,1.92-.84,1.89-.25,4.34,1.34,5.62,1.24,.99,2.63,.99,4.51,1.12Zm-92.44-6.14c0-3-2.66-5.67-5.65-5.64-2.57,.02-5.16,2.6-5.12,5.08,.04,2.49,2.81,4.94,5.59,4.95,3.14,.01,5.17-1.71,5.18-4.39Zm9.82,15.95c-.8,.07-1.67-.27-2.44,.19-1.44,.87-2.42,2.04-2.76,3.77-.34,1.73,.25,3.33,1.71,4.36,1.65,1.17,3.52,1.15,5.35,.93,1.56-.19,3.24-1.94,3.43-3.19,.25-1.69-.42-3.1-1.39-4.39-.96-1.27-2.11-2.2-3.89-1.68Zm58.82-5.37c.01-2.61-1.53-4.76-3.68-5.2-3.44-.7-6.68,2.01-6.15,5.52,.19,1.26,.62,2.53,2.24,2.99,.65,.19,1.37,.23,2,.56,.75,.4,4.34-.21,4.44-.87,.16-1.18,1.71-1.81,1.14-3.01Z"/>
    <path class="cls-1" d="M121.87,67.2c.51,3.05-.75,5.58-2.29,7.82-.72,1.04-1.9,2.04-3.32,2.7-2.87,1.33-5.79,1.9-8.91,1.87-2.11-.02-3.94-.78-5.79-1.72-1.8-.92-3.22-2.07-4.08-3.9-1.14-2.42-1.82-4.76-1.11-7.57,.65-2.57,1.64-4.88,3.32-6.8,1.18-1.35,2.45-2.79,4.51-3.12,.69-.11,1.39-.53,2.14-.74,2.52-.72,5.05-.62,7.4,.18,2.46,.82,4.92,2,6.24,4.48,1.15,2.14,2.6,4.24,1.89,6.8Z"/>
    <path class="cls-1" d="M50.98,62.05c-.03,3.15-1.06,5.78-3.14,8.04-1.57,1.7-3.42,2.57-5.71,3.13-2.47,.61-4.83,.69-7.26,.36-3.92-.54-6.86-2.55-8.76-6.04-.02-.03-.05-.07-.05-.1-.07-2.07-1.37-4.04-.77-6.13,.52-1.78,1.01-3.58,1.98-5.22,.91-1.52,1.96-2.98,3.36-3.96,1.52-1.08,3.06-2.38,5.16-2.31,.71,.03,1.25-.52,2.03-.49,1.69,.09,3.54,.18,4.98,.69,2,.71,4.39,1.45,5.33,3.93,.39,1.02,1.23,1.84,1.79,2.82,1.02,1.77,.77,3.58,1.06,5.28Z"/>
    <path class="cls-1" d="M66.46,33.24c-.4,.01-.8,0-1.41,0-.94-.11-2.17,.32-3.24-.53-.65-.52-1.11-1.18-1.46-1.85-.64-1.24-1.45-2.43-1.27-3.99,.14-1.18,.06-2.4,.01-3.59-.11-2.53,.49-4.91,1.78-7.04,.39-.64,1.26-1.03,2.16-1.17,2.41-.37,5,2.3,5.92,3.83,.98,1.64,.92,3.34,1.25,5.06,.28,1.4,.25,2.81,.51,4.2,.54,2.92-1.29,5.06-4.25,5.08Z"/>
    <path class="cls-1" d="M100.07,27.57c-.22,1.64-.37,3.3-.68,4.93-.28,1.52-.73,3-2.16,3.91-.13,.09-.27,.21-.41,.21-1.76,.01-3.53,.29-5.22-.63-1.64-.89-2.17-2.31-2.31-3.99-.05-.52,0-1.04,0-1.56-.04-3.52,1.23-6.66,3.16-9.47,1.13-1.65,4.21-2.41,6.23,.2,1.42,1.84,1.72,4.09,1.4,6.4Z"/>
    <path class="cls-1" d="M77.73,61.8c-2.4,1.89-5.79,1.7-7.79-.94-1.04-1.37,.06-3.49,1.82-3.62,.63-.05,1.28-.01,1.91-.01,1.34,.02,2.67-.14,3.85,.85,1.28,1.06,1.52,2.69,.21,3.72Z"/>
    <path class="cls-4" d="M66.04,58.27c-1.84,1.07-3.79,1.83-5.97,1.72-.49-.03-1.09,.23-1.41-.33-.32-.56,.31-.92,.45-1.39,1.4,.03,2.79-.05,4.09-.65,.36-.16,.8-.42,.72-.85-.07-.39-.49-.44-.86-.26-.03-.03-.06-.06-.1-.08-.39-1.05-1.54-1.06-2.28-1.64-1.19-.93-1.24-1.06-.4-2.25,.09-.02,.18-.05,.28-.07,.35,.11,.71,.22,1.06,.33,.07,.4,.37,.5,.72,.52,.16,.08,.31,.16,.47,.23,.09,.24,.21,.44,.51,.42l.04,.03c.17,.43,.55,.47,.94,.49l.1,.04,.1-.02c.1,1.02,1.18,.92,1.72,1.47,.89,.93,.92,1.64-.18,2.29Z"/>
    <path class="cls-4" d="M79.68,66.98c-.83,1.12-2.05,1.78-3.3,2.19-.86,.28-1.79,.7-2.61,.53-2.78-.03-4.86-1.16-6.61-3.04-.48-.51-.44-1.07-.06-1.5,.48-.52,.99-.1,1.31,.3,1.15,1.42,2.67,2.28,4.44,2.47,1.86,.19,3.59-.4,5.05-1.63,.24-.2,.45-.43,.74-.57,.39-.2,.74-.28,1.09,.08,.4,.41,.22,.81-.05,1.17Z"/>
    <path class="cls-4" d="M89.65,60.39c-.05,1.2-.62,1.55-1.79,1.26-1.67-.43-3.22-1.13-4.68-1.98-1.58-.92-1.52-2.43-.08-3.85,1.22-1.21,2.81-1.6,4.36-2.1,.44-.15,.89-.05,.96,.57,.05,.5,.06,1-.61,1.08-1.02,.12-1.89,.64-2.76,1.11-1.24,.67-1.24,1.3-.11,2.06,1.4,.94,2.93,1.55,4.61,1.77,.02,.05,.05,.07,.1,.08Z"/>
  </g>
</svg>